<svg aria-hidden="true" style="position: absolute; width: 0; height: 0; overflow: hidden;" version="1.1" xmlns="http://www.w3.org/2000/svg" xmlns:xlink="http://www.w3.org/1999/xlink">
<defs>
<symbol id="icon-facebook" viewBox="0 0 32 32">
<path d="M21.334 5.314h2.924v-5.089c-1.233-0.143-2.661-0.224-4.109-0.224-0.052 0-0.104 0-0.156 0l0.008-0c-4.214 0-7.101 2.65-7.101 7.522v4.481h-4.648v5.69h4.648v14.316h5.701v-14.315h4.46l0.707-5.69h-5.169v-3.923c0-1.644 0.443-2.769 2.735-2.769z"></path>
</symbol>
<symbol id="icon-instagram" viewBox="0 0 32 32">
<path d="M31.977 9.411c-0.074-1.701-0.349-2.87-0.743-3.883-0.424-1.112-1.054-2.059-1.85-2.838l-0.001-0.001c-0.78-0.792-1.725-1.42-2.779-1.827l-0.054-0.018c-1.020-0.394-2.181-0.667-3.883-0.743-1.712-0.082-2.257-0.101-6.604-0.101-4.345 0-4.889 0.019-6.597 0.094-1.7 0.074-2.87 0.349-3.881 0.743-1.112 0.424-2.060 1.054-2.839 1.85l-0.001 0.001c-0.792 0.78-1.419 1.725-1.825 2.779l-0.018 0.054c-0.395 1.019-0.669 2.181-0.744 3.883-0.082 1.713-0.101 2.257-0.101 6.604 0 4.345 0.019 4.889 0.094 6.597 0.075 1.701 0.35 2.87 0.744 3.883 0.427 1.111 1.056 2.058 1.849 2.838l0.001 0.001c0.8 0.813 1.77 1.444 2.833 1.844 1.019 0.395 2.183 0.671 3.883 0.744 1.708 0.075 2.252 0.094 6.597 0.094 4.347 0 4.891-0.019 6.597-0.094 1.701-0.074 2.87-0.349 3.883-0.743 2.158-0.85 3.834-2.526 4.665-4.629l0.019-0.055c0.394-1.020 0.669-2.183 0.744-3.883 0.075-1.708 0.093-2.252 0.093-6.597s-0.006-4.889-0.080-6.597zM29.096 22.48c-0.070 1.564-0.333 2.407-0.551 2.97-0.552 1.4-1.64 2.487-3.005 3.025l-0.036 0.012c-0.56 0.219-1.412 0.482-2.969 0.551-1.689 0.075-2.194 0.094-6.466 0.094-4.27 0-4.784-0.019-6.466-0.094-1.564-0.069-2.407-0.331-2.97-0.551-0.721-0.269-1.335-0.676-1.836-1.193l-0.001-0.001c-0.517-0.504-0.924-1.117-1.184-1.803l-0.011-0.034c-0.218-0.563-0.48-1.413-0.549-2.97-0.075-1.689-0.094-2.196-0.094-6.466 0-4.272 0.019-4.785 0.094-6.466 0.069-1.564 0.331-2.407 0.549-2.97 0.269-0.722 0.678-1.337 1.199-1.837l0.002-0.002c0.504-0.517 1.119-0.924 1.806-1.183l0.034-0.011c0.56-0.219 1.412-0.48 2.969-0.551 1.688-0.074 2.196-0.093 6.466-0.093 4.276 0 4.784 0.019 6.466 0.093 1.564 0.069 2.407 0.331 2.97 0.551 0.693 0.256 1.325 0.663 1.837 1.194 0.531 0.52 0.938 1.144 1.196 1.841 0.218 0.56 0.48 1.412 0.549 2.969 0.075 1.688 0.094 2.194 0.094 6.466 0 4.27-0.019 4.769-0.094 6.459z"></path>
<path d="M16.064 7.785c-4.54 0.002-8.221 3.683-8.222 8.223v0c0.091 4.472 3.738 8.063 8.223 8.063s8.132-3.59 8.223-8.054l0-0.009c-0.001-4.541-3.682-8.222-8.223-8.223h-0zM16.064 21.341c-2.946-0-5.334-2.389-5.334-5.334s2.388-5.334 5.334-5.334c0 0 0.001 0 0.001 0h-0c2.947 0 5.335 2.389 5.335 5.335s-2.389 5.335-5.335 5.335v0zM26.532 7.46c0 1.061-0.86 1.921-1.921 1.921s-1.921-0.86-1.921-1.921v0c0-1.061 0.86-1.921 1.921-1.921s1.921 0.86 1.921 1.921v0z"></path>
</symbol>
<symbol id="icon-viber" viewBox="0 0 32 32">
<path fill="#665cac" style="fill: var(--color1, #665cac)" d="M15.197 0.003c-2.567 0.035-8.089 0.456-11.179 3.287-2.293 2.28-3.095 5.641-3.188 9.804-0.080 4.147-0.173 11.933 7.333 14.055v3.227c0 0-0.051 1.293 0.803 1.56 1.053 0.333 1.653-0.665 2.653-1.732l1.867-2.107c5.133 0.427 9.067-0.559 9.52-0.705 1.040-0.333 6.908-1.081 7.868-8.869 0.987-8.041-0.48-13.108-3.12-15.401l-0.013-0.003c-0.8-0.733-4-3.067-11.16-3.093 0 0-0.528-0.033-1.384-0.021zM15.287 2.265c0.727-0.004 1.173 0.027 1.173 0.027 6.053 0.013 8.948 1.84 9.628 2.453 2.227 1.905 3.371 6.475 2.533 13.189-0.8 6.507-5.56 6.92-6.44 7.2-0.373 0.12-3.84 0.973-8.203 0.693 0 0-3.252 3.921-4.265 4.935-0.16 0.173-0.347 0.227-0.467 0.2-0.173-0.040-0.227-0.253-0.213-0.547l0.027-5.359c-6.361-1.76-5.988-8.403-5.921-11.869 0.080-3.467 0.733-6.309 2.667-8.229 2.609-2.36 7.3-2.68 9.481-2.693zM15.767 5.732c-0 0-0.001 0-0.001 0-0.22 0-0.399 0.178-0.399 0.399 0 0 0 0 0 0v0c0 0.221 0.179 0.4 0.4 0.4v0c0.043-0.001 0.093-0.001 0.143-0.001 2.034 0 3.88 0.809 5.232 2.123l-0.002-0.002c1.453 1.413 2.161 3.307 2.188 5.787 0 0.221 0.179 0.4 0.4 0.4v0-0.012c0.221 0 0.4-0.179 0.4-0.4v0c0.005-0.109 0.008-0.236 0.008-0.364 0-2.326-0.923-4.436-2.423-5.985l0.002 0.002c-1.587-1.547-3.589-2.347-5.948-2.347zM10.495 6.652c-0.054-0.008-0.116-0.013-0.18-0.013-0.236 0-0.457 0.064-0.646 0.176l0.006-0.003h-0.016c-0.547 0.32-1.051 0.72-1.531 1.253-0.36 0.427-0.561 0.852-0.615 1.265-0.009 0.064-0.014 0.137-0.014 0.212 0 0.182 0.029 0.357 0.084 0.521l-0.003-0.012 0.027 0.013c0.458 1.331 0.998 2.476 1.646 3.549l-0.046-0.082c0.895 1.608 1.922 2.996 3.101 4.237l-0.008-0.009 0.040 0.053 0.053 0.040 0.080 0.080c1.236 1.174 2.628 2.205 4.136 3.053l0.104 0.054c1.76 0.96 2.829 1.413 3.469 1.6v0.013c0.187 0.053 0.357 0.080 0.531 0.080 0.57-0.043 1.079-0.274 1.471-0.631l-0.002 0.002c0.52-0.467 0.933-0.984 1.24-1.531v-0.013c0.307-0.573 0.2-1.121-0.24-1.495-0.845-0.742-1.782-1.421-2.781-2.007l-0.085-0.046c-0.68-0.373-1.373-0.147-1.653 0.227l-0.6 0.759c-0.307 0.373-0.867 0.32-0.867 0.32l-0.016 0.013c-4.16-1.067-5.267-5.279-5.267-5.279s-0.053-0.573 0.333-0.867l0.747-0.6c0.36-0.293 0.613-0.987 0.227-1.667-0.631-1.084-1.31-2.022-2.071-2.887l0.017 0.020c-0.166-0.204-0.399-0.349-0.665-0.399l-0.007-0.001zM16.459 7.839c-0.22 0.001-0.399 0.18-0.399 0.4s0.179 0.4 0.4 0.4c0 0 0.001 0 0.001 0h-0c1.388 0.025 2.636 0.607 3.532 1.532l0.001 0.001c0.75 0.825 1.209 1.926 1.209 3.134 0 0.103-0.003 0.205-0.010 0.306l0.001-0.014c0.001 0.22 0.18 0.399 0.4 0.399 0 0 0 0 0 0v0l0.013 0.016c0 0 0 0 0 0 0.221 0 0.4-0.179 0.4-0.4 0-0 0-0.001 0-0.001v0c0.040-1.587-0.453-2.92-1.427-3.987s-2.333-1.667-4.067-1.787c-0.008-0.001-0.018-0.001-0.028-0.001s-0.020 0-0.029 0.001l0.001-0zM17.112 9.997c-0.004-0-0.008-0-0.012-0-0.225 0-0.407 0.182-0.407 0.408 0 0.221 0.176 0.401 0.395 0.407h0.001c1.32 0.067 1.96 0.733 2.040 2.107 0.007 0.215 0.184 0.387 0.4 0.387 0 0 0 0 0 0h0.013c0.215-0.007 0.388-0.183 0.388-0.4 0-0.009-0-0.019-0.001-0.028l0 0.001c-0.093-1.787-1.067-2.788-2.8-2.881-0.002-0-0.005-0-0.008-0s-0.006 0-0.008 0h0z"></path>
</symbol>
<symbol id="icon-telegram" viewBox="0 0 32 32">
<path d="M16 0c-8.838 0-16 7.162-16 16s7.162 16 16 16 16-7.163 16-16-7.163-16-16-16zM23.863 10.969l-2.625 12.369c-0.181 0.881-0.712 1.087-1.45 0.681l-4-2.956-1.919 1.869c-0.225 0.219-0.4 0.4-0.8 0.4-0.519 0-0.431-0.194-0.606-0.688l-1.363-4.475-3.956-1.231c-0.856-0.262-0.862-0.85 0.194-1.269l15.412-5.95c0.7-0.319 1.381 0.169 1.113 1.25z"></path>
</symbol>
<symbol id="icon-plus" viewBox="0 0 32 32">
<path d="M31 12h-11v-11c0-0.552-0.448-1-1-1h-6c-0.552 0-1 0.448-1 1v11h-11c-0.552 0-1 0.448-1 1v6c0 0.552 0.448 1 1 1h11v11c0 0.552 0.448 1 1 1h6c0.552 0 1-0.448 1-1v-11h11c0.552 0 1-0.448 1-1v-6c0-0.552-0.448-1-1-1z"></path>
</symbol>

</defs>
</svg>